HIERARCHY
ROOT Hips
{
    OFFSET 0.000000 0.000000 0.000000
    CHANNELS 6 Xposition Yposition Zposition Zrotation Xrotation Yrotation
    JOINT Spine
    {
        OFFSET -0.000000 6.993131 0.000000
        CHANNELS 3 Zrotation Xrotation Yrotation
        JOINT Spine1
        {
            OFFSET -0.000000 20.649729 0.000000
            CHANNELS 3 Zrotation Xrotation Yrotation
            JOINT Neck
            {
                OFFSET -0.000000 20.564924 1.869539
                CHANNELS 3 Zrotation Xrotation Yrotation
                JOINT Head
                {
                    OFFSET -0.000000 11.939490 -1.705642
                    CHANNELS 3 Zrotation Xrotation Yrotation
                    End Site
                    {
                        OFFSET -0.000000 21.320518 0.000000
                    }
                }
            }
            JOINT LeftShoulder
            {
                OFFSET 3.446977 19.850397 -0.038759
                CHANNELS 3 Zrotation Xrotation Yrotation
                JOINT LeftArm
                {
                    OFFSET 7.083611 0.000000 0.000000
                    CHANNELS 3 Zrotation Xrotation Yrotation
                    JOINT LeftForeArm
                    {
                        OFFSET 32.044487 0.000000 0.000000
                        CHANNELS 3 Zrotation Xrotation Yrotation
                        JOINT LeftHand
                        {
                            OFFSET 22.068741 0.000000 0.000000
                            CHANNELS 3 Zrotation Xrotation Yrotation
                            End Site
                            {
                                OFFSET 12.792312 0.000000 0.000000
                            }
                        }
                    }
                }
            }
            JOINT RightShoulder
            {
                OFFSET -3.365844 19.850397 -0.038759
                CHANNELS 3 Zrotation Xrotation Yrotation
                JOINT RightArm
                {
                    OFFSET -7.083611 0.000000 0.000000
                    CHANNELS 3 Zrotation Xrotation Yrotation
                    JOINT RightForeArm
                    {
                        OFFSET -32.044487 0.000000 0.000000
                        CHANNELS 3 Zrotation Xrotation Yrotation
                        JOINT RightHand
                        {
                            OFFSET -22.068741 0.000000 0.000000
                            CHANNELS 3 Zrotation Xrotation Yrotation
                            End Site
                            {
                                OFFSET -12.792312 0.000000 0.000000
                            }
                        }
                    }
                }
            }
        }
    }
    JOINT LeftUpLeg
    {
        OFFSET 8.528208 0.000000 0.000000
        CHANNELS 3 Zrotation Xrotation Yrotation
        JOINT LeftLeg
        {
            OFFSET -0.000000 -31.874865 0.000000
            CHANNELS 3 Zrotation Xrotation Yrotation
            JOINT LeftFoot
            {
                OFFSET -0.000000 -38.221939 0.000000
                CHANNELS 3 Zrotation Xrotation Yrotation
                JOINT LeftToeBase
                {
                    OFFSET -0.000000 -5.543335 12.792312
                    CHANNELS 3 Zrotation Xrotation Yrotation
                    End Site
                    {
                        OFFSET -0.000000 0.000000 3.411283
                    }
                }
            }
        }
    }
    JOINT RightUpLeg
    {
        OFFSET -8.528208 0.000000 0.000000
        CHANNELS 3 Zrotation Xrotation Yrotation
        JOINT RightLeg
        {
            OFFSET -0.000000 -31.874865 0.000000
            CHANNELS 3 Zrotation Xrotation Yrotation
            JOINT RightFoot
            {
                OFFSET -0.000000 -38.221939 0.000000
                CHANNELS 3 Zrotation Xrotation Yrotation
                JOINT RightToeBase
                {
                    OFFSET -0.000000 -5.543335 12.792312
                    CHANNELS 3 Zrotation Xrotation Yrotation
                    End Site
                    {
                        OFFSET -0.000000 0.000000 3.411283
                    }
                }
            }
        }
    }
}
MOTION
Frames:    11
Frame Time:    0.008333
0.669508    75.943199    29.542143    -3.975760    0.515649    88.365761    2.389572    -8.743612    -1.924005    -11.495384    2.861129    -1.818670    9.696999    9.858063    6.343165    -2.767162    1.601826    5.666895    7.278667    9.041818    2.297187    -62.106544    49.063042    -7.072368    5.047020    -10.301852    -32.887016    -4.408281    -8.802970    -0.763366    14.542930    11.900626    -0.614970    37.824116    49.332638    13.942049    -5.811119    -5.357431    22.879116    16.575443    -3.655358    3.640424    -3.550313    -5.817499    0.282607    2.231195    7.522854    -2.323409    -2.342708    -10.082327    -0.651088    0.000000    0.000000    0.000000    -7.032024    -3.015828    -0.076053    10.070940    8.154877    2.631112    -6.941915    -8.361019    -13.209383    0.000000    0.000000    0.000000    
0.677354    75.932869    29.512268    -3.959615    0.536442    88.264153    2.502532    -8.736094    -1.911390    -11.530324    2.837808    -1.816011    9.504564    9.807353    6.484828    -2.662377    1.705135    5.837378    7.473408    8.879290    2.291682    -61.620625    47.786411    -6.394448    4.953211    -9.918000    -32.818279    -5.758899    -8.409826    -1.353145    14.013474    11.749941    -0.306318    37.284267    48.168396    13.326636    -5.940049    -5.228218    22.059221    15.911039    -3.614836    3.286162    -3.591627    -5.831736    0.703783    2.291906    7.595939    -2.786993    -2.322850    -10.164073    -0.515500    0.000000    0.000000    0.000000    -7.088067    -3.015776    -0.054757    10.089092    8.163645    2.696718    -6.945446    -8.392004    -13.197842    0.000000    0.000000    0.000000    
0.678013    75.931824    29.501188    -3.964613    0.540910    88.219101    2.569417    -8.747338    -1.916849    -11.548613    2.831715    -1.827012    9.385878    9.775975    6.575294    -2.604970    1.757494    5.944581    7.573063    8.784128    2.298824    -61.397739    47.012966    -5.993233    4.862161    -9.818784    -32.814152    -6.066520    -8.310555    -1.787769    13.747709    11.796259    -0.209754    36.909779    47.214207    13.178942    -5.924399    -4.940454    21.562908    16.150070    -3.241112    4.048130    -3.593934    -5.832276    0.719330    2.279593    7.598790    -2.796011    -2.300412    -10.178622    -0.477766    0.000000    0.000000    0.000000    -7.104759    -3.029416    -0.044431    10.094236    8.164769    2.692892    -6.936734    -8.394399    -13.166599    0.000000    0.000000    0.000000    
0.704216    75.940361    29.492716    -3.944491    0.583121    88.085274    2.608574    -8.835758    -1.896928    -11.567310    2.950439    -1.799605    9.161591    9.679298    6.696514    -2.387401    1.832776    6.105507    7.725443    8.687743    2.363101    -61.114609    46.145233    -5.714334    4.822366    -9.510509    -32.645859    -6.652243    -7.985878    -2.227323    13.376167    11.699334    -0.007207    36.680477    46.530586    12.949863    -6.111846    -4.846624    20.978794    15.980133    -3.178318    3.844108    -3.630751    -5.740017    0.822360    2.272290    7.515302    -2.727641    -2.340382    -10.115022    -0.505427    0.000000    0.000000    0.000000    -7.144467    -3.011434    0.081087    10.089018    8.142957    2.684548    -6.907215    -8.380146    -13.145651    0.000000    0.000000    0.000000    
0.695690    75.935974    29.482191    -3.958177    0.570086    88.102051    2.771472    -8.925563    -2.004773    -11.700931    3.082647    -1.905192    8.947800    9.606610    6.869000    -2.246872    1.819631    6.309825    7.877925    8.573834    2.512331    -60.825367    45.228325    -5.295123    4.847336    -9.204740    -32.697475    -7.031535    -7.650424    -2.416392    12.977563    11.565853    0.343686    36.494957    45.753578    12.674413    -6.153883    -5.104373    20.406858    15.930875    -3.411938    4.203567    -3.627777    -5.784026    0.808178    2.279871    7.558960    -2.790865    -2.304338    -10.145936    -0.456760    0.000000    0.000000    0.000000    -7.142242    -3.026201    0.026258    10.090182    8.145437    2.682428    -6.912051    -8.385101    -13.114610    0.000000    0.000000    0.000000    
0.680793    75.931969    29.474556    -3.968572    0.546611    88.143433    2.816712    -8.846717    -1.976753    -11.683254    2.951482    -1.892647    8.909239    9.658555    6.853029    -2.228283    1.798431    6.301795    8.020074    8.475691    2.386484    -60.484478    44.378162    -4.972509    4.838639    -8.979650    -32.548096    -7.277148    -7.401677    -2.843060    12.789262    11.402187    0.306198    36.221394    44.915592    12.255532    -6.219000    -4.887761    20.022650    15.057378    -3.372995    3.175812    -3.613604    -5.837076    0.795011    2.285558    7.615924    -2.830347    -2.315615    -10.187318    -0.449401    0.000000    0.000000    0.000000    -7.130371    -3.043188    -0.043687    10.090816    8.165967    2.751033    -6.953402    -8.380067    -13.145924    0.000000    0.000000    0.000000    
0.668310    75.930695    29.468584    -3.979008    0.533145    88.163445    3.061819    -8.999180    -2.127944    -11.904966    3.219481    -2.033202    8.582659    9.517522    7.101511    -2.028154    1.747517    6.594030    8.122502    8.272638    2.548997    -60.138569    43.434532    -4.365210    5.053246    -8.719433    -32.654697    -7.788110    -7.072628    -2.662590    12.328853    11.143221    0.780726    36.165207    43.764168    11.894047    -6.037952    -4.499121    19.593107    14.751305    -3.038335    3.247224    -3.601071    -5.878283    0.791280    2.276665    7.649993    -2.819858    -2.281626    -10.198128    -0.473434    0.000000    0.000000    0.000000    -7.121292    -3.062590    -0.053802    10.092062    8.173315    2.732362    -6.912575    -8.385170    -13.151807    0.000000    0.000000    0.000000    
0.650227    75.929024    29.451117    -4.014393    0.576656    88.102463    2.839481    -8.819157    -1.921122    -11.642021    2.865757    -1.847907    8.862976    9.713051    6.935477    -2.302190    1.706129    6.383746    8.409823    8.245140    2.276542    -59.782490    42.493233    -4.385417    5.016952    -8.383821    -32.185074    -7.288942    -6.751934    -3.106287    12.215362    10.979500    0.391965    35.613220    43.026855    11.509336    -5.923617    -4.573590    19.088217    14.362432    -3.151023    3.403924    -3.657690    -5.931884    0.834862    2.294133    7.663104    -2.801701    -2.307174    -10.177320    -0.495021    0.000000    0.000000    0.000000    -7.187678    -3.155827    -0.016415    10.111588    8.224745    2.769671    -6.954319    -8.399895    -13.174759    0.000000    0.000000    0.000000    
0.629861    75.922928    29.453424    -4.029190    0.535357    88.206017    2.808130    -8.794335    -1.958003    -11.497869    2.849504    -1.887028    8.833100    9.696397    6.966183    -2.384585    1.714771    6.405866    8.601372    8.117118    2.216184    -59.422226    41.492710    -4.128260    5.139060    -8.086720    -31.945553    -7.456277    -6.414117    -3.285071    11.882810    10.800913    0.411033    35.282009    42.125725    11.152021    -5.914727    -4.447736    18.830868    13.683323    -3.148626    2.669209    -3.613728    -6.012271    0.771443    2.276614    7.736839    -2.849892    -2.276945    -10.218418    -0.483906    0.000000    0.000000    0.000000    -7.143811    -3.165310    -0.114339    10.101357    8.240937    2.788806    -6.978804    -8.414804    -13.195603    0.000000    0.000000    0.000000    
0.635475    75.921799    29.449003    -4.016310    0.526049    88.222969    2.764067    -8.872597    -1.941990    -11.360395    3.010288    -1.856999    8.766908    9.627727    6.996030    -2.418292    1.720683    6.431310    8.864057    7.924837    2.155303    -59.073196    40.686905    -3.855690    5.401100    -7.732738    -31.740490    -7.601661    -6.000232    -3.135493    11.485087    10.525983    0.412118    34.957336    41.164429    10.848345    -6.164253    -4.220231    18.227457    13.976814    -2.868952    2.969648    -3.609190    -5.986771    0.729574    2.270649    7.728113    -2.882334    -2.251753    -10.236652    -0.425992    0.000000    0.000000    0.000000    -7.133248    -3.133334    -0.136633    10.091463    8.218111    2.758905    -6.959679    -8.413638    -13.165136    0.000000    0.000000    0.000000    
0.641581    75.923363    29.425064    -4.006347    0.573553    88.216080    2.686978    -8.845525    -1.886253    -11.243420    2.953139    -1.803333    8.785891    9.680750    6.988373    -2.543135    1.741843    6.411032    9.094644    7.795719    2.045326    -58.697018    39.741268    -3.584842    5.599647    -7.476803    -31.443457    -7.525339    -5.687399    -3.400553    11.169550    10.263605    0.352661    34.705956    39.984249    10.408349    -6.042995    -3.832637    17.962963    12.726724    -2.673848    1.835054    -3.697885    -5.954646    0.674340    2.299417    7.687673    -2.744488    -2.273033    -10.179307    -0.495600    0.000000    0.000000    0.000000    -7.220031    -3.132160    -0.162651    10.121534    8.249578    2.828336    -6.950804    -8.434707    -13.198602    0.000000    0.000000    0.000000    
